<svg width="256px" height="256px" viewBox="-102.4 -102.4 1228.80 1228.80" class="icon" version="1.1" xmlns="http://www.w3.org/2000/svg" fill="#000000" stroke="#000000" stroke-width="0.01024" transform="rotate(-45)"><g id="SVGRepo_bgCarrier" stroke-width="0"></g><g id="SVGRepo_tracerCarrier" stroke-linecap="round" stroke-linejoin="round"></g><g id="SVGRepo_iconCarrier"><path d="M611.474286 626.102857c77.531429 0 143.36 40.96 172.617143 100.937143 51.2 10.24 92.16 46.811429 103.862857 92.16 36.571429 7.314286 64.365714 38.034286 64.365714 73.142857 0 40.96-36.571429 74.605714-83.382857 74.605714-17.554286 0-35.108571-5.851429-48.274286-14.628571-19.017143 8.777143-40.96 14.628571-62.902857 14.628571-23.405714 0-46.811429-5.851429-65.828571-16.091428-23.405714 10.24-51.2 16.091429-78.994286 16.091428-29.257143 0-57.051429-5.851429-80.457143-16.091428-20.48 8.777143-42.422857 14.628571-67.291429 14.628571-74.605714 0-134.582857-54.125714-134.582857-121.417143 0-59.977143 48.274286-109.714286 111.177143-119.954285 27.794286-57.051429 93.622857-98.011429 169.691429-98.011429z" fill="#FEFEFE"></path><path d="M868.937143 977.188571c-17.554286 0-35.108571-4.388571-49.737143-13.165714-40.96 17.554286-89.234286 17.554286-128.731429-1.462857-49.737143 19.017143-108.251429 19.017143-159.451428 0-20.48 10.24-43.885714 14.628571-67.291429 14.628571-80.457143 0-144.822857-58.514286-144.822857-131.657142 0-62.902857 48.274286-115.565714 114.102857-128.731429 33.645714-61.44 103.862857-100.937143 179.931429-100.937143s146.285714 39.497143 179.931428 102.4c51.2 11.702857 92.16 46.811429 105.325715 93.622857 39.497143 11.702857 65.828571 43.885714 65.828571 81.92-1.462857 45.348571-43.885714 83.382857-95.085714 83.382857z m-48.274286-35.108571c1.462857 0 4.388571 0 5.851429 1.462857 13.165714 8.777143 27.794286 13.165714 42.422857 13.165714 39.497143 0 73.142857-29.257143 73.142857-64.365714 0-29.257143-23.405714-55.588571-55.588571-62.902857-4.388571-1.462857-7.314286-4.388571-7.314286-7.314286-10.24-42.422857-48.274286-76.068571-96.548572-84.845714-2.925714 0-5.851429-2.925714-7.314285-5.851429-29.257143-57.051429-93.622857-95.085714-163.84-95.085714S476.891429 672.914286 447.634286 731.428571c-1.462857 2.925714-4.388571 4.388571-7.314286 5.851429-58.514286 10.24-102.4 55.588571-102.4 109.714286 0 61.44 55.588571 111.177143 124.342857 111.177143 21.942857 0 43.885714-5.851429 62.902857-14.628572 2.925714-1.462857 5.851429-1.462857 8.777143 0 48.274286 20.48 103.862857 20.48 152.137143 0 2.925714-1.462857 5.851429-1.462857 8.777143 0 36.571429 19.017143 83.382857 19.017143 119.954286 1.462857 2.925714-2.925714 4.388571-2.925714 5.851428-2.925714z" fill="#141515"></path><path d="M444.708571 58.514286c-86.308571 0-160.914286 46.811429-194.56 114.102857-58.514286 10.24-103.862857 52.662857-117.028571 103.862857-40.96 8.777143-71.68 42.422857-71.68 81.92 0 46.811429 42.422857 84.845714 93.622857 84.845714 20.48 0 39.497143-5.851429 55.588572-16.091428 21.942857 10.24 45.348571 16.091429 71.68 16.091428 27.794286 0 52.662857-5.851429 74.605714-17.554285 27.794286 11.702857 57.051429 17.554286 89.234286 17.554285 32.182857 0 62.902857-7.314286 90.697142-19.017143 21.942857 11.702857 48.274286 19.017143 76.068572 19.017143 83.382857 0 152.137143-61.44 152.137143-137.508571 0-67.291429-54.125714-122.88-124.342857-134.582857C605.622857 105.325714 531.017143 58.514286 444.708571 58.514286z" fill="#7ADCFF"></path><path d="M611.474286 453.485714c-26.331429 0-52.662857-5.851429-76.068572-17.554285-57.051429 23.405714-122.88 23.405714-179.931428 1.462857-45.348571 20.48-100.937143 21.942857-146.285715 1.462857-16.091429 10.24-35.108571 14.628571-55.588571 14.628571-57.051429 0-103.862857-42.422857-103.862857-95.085714 0-42.422857 30.72-78.994286 73.142857-90.697143 16.091429-52.662857 61.44-92.16 118.491429-105.325714 36.571429-70.217143 115.565714-114.102857 201.874285-114.102857 84.845714 0 163.84 43.885714 201.874286 114.102857 74.605714 14.628571 128.731429 74.605714 128.731429 143.36 0 81.92-73.142857 147.748571-162.377143 147.748571z m-76.068572-39.497143c1.462857 0 2.925714 0 4.388572 1.462858 21.942857 11.702857 46.811429 17.554286 71.68 17.554285 77.531429 0 141.897143-57.051429 141.897143-125.805714 0-61.44-48.274286-114.102857-115.565715-124.342857-2.925714 0-5.851429-2.925714-7.314285-5.851429-32.182857-65.828571-105.325714-106.788571-184.32-106.788571-80.457143 0-152.137143 42.422857-185.782858 108.251428-1.462857 2.925714-4.388571 4.388571-7.314285 5.851429-54.125714 10.24-98.011429 48.274286-109.714286 96.548571-1.462857 4.388571-4.388571 7.314286-7.314286 7.314286-38.034286 8.777143-64.365714 38.034286-64.365714 71.68 0 40.96 38.034286 74.605714 83.382857 74.605714 17.554286 0 35.108571-4.388571 49.737143-14.628571 2.925714-1.462857 7.314286-2.925714 10.24 0 42.422857 20.48 95.085714 19.017143 137.508571-1.462857 2.925714-1.462857 5.851429-1.462857 8.777143 0 54.125714 21.942857 118.491429 21.942857 172.617143-1.462857-1.462857-2.925714 0-2.925714 1.462857-2.925715z" fill="#141515"></path><path d="M241.371429 509.074286L683.154286 263.314286c136.045714-76.068571 251.611429-38.034286 310.125714 108.251428 26.331429 65.828571-57.051429 124.342857-108.251429 140.434286L277.942857 713.874286c-58.514286 20.48-74.605714-14.628571-92.16-58.514286-42.422857-103.862857-23.405714-103.862857 55.588572-146.285714z" fill="#EEECF6"></path><path d="M247.222857 729.965714c-43.885714 0-58.514286-39.497143-71.68-70.217143-39.497143-100.937143-24.868571-114.102857 43.885714-152.137142 5.851429-2.925714 10.24-5.851429 16.091429-8.777143l441.782857-245.76c46.811429-26.331429 92.16-39.497143 134.582857-39.497143 84.845714 0 150.674286 52.662857 190.171429 152.137143 8.777143 20.48 7.314286 42.422857-2.925714 64.365714-20.48 42.422857-71.68 76.068571-112.64 90.697143L280.868571 724.114286c-13.165714 4.388571-23.405714 5.851429-33.645714 5.851428z m564.662857-494.445714c-38.034286 0-80.457143 11.702857-124.342857 36.571429L245.76 517.851429c-5.851429 2.925714-11.702857 5.851429-16.091429 8.777142-62.902857 35.108571-70.217143 38.034286-35.108571 125.805715 14.628571 35.108571 24.868571 57.051429 52.662857 57.051428 7.314286 0 17.554286-1.462857 27.794286-5.851428l607.085714-203.337143c36.571429-11.702857 83.382857-43.885714 99.474286-78.994286 7.314286-16.091429 8.777143-32.182857 1.462857-48.274286-36.571429-89.234286-95.085714-137.508571-171.154286-137.508571z" fill="#141515"></path><path d="M686.08 261.851429c124.342857-61.44 226.742857-40.96 288.182857 70.217142-23.405714 14.628571-49.737143 24.868571-78.994286 32.182858-99.474286 20.48-191.634286-23.405714-207.725714-96.548572 0-2.925714 0-4.388571-1.462857-5.851428z" fill="#90CED9"></path><path d="M845.531429 378.88c-86.308571 0-155.062857-45.348571-168.228572-109.714286 0-1.462857-1.462857-4.388571-1.462857-5.851428 0-4.388571 1.462857-8.777143 5.851429-10.24 46.811429-23.405714 90.697143-35.108571 131.657142-35.108572 71.68 0 130.194286 38.034286 169.691429 109.714286 2.925714 4.388571 1.462857 10.24-2.925714 13.165714-24.868571 16.091429-52.662857 26.331429-83.382857 33.645715-16.091429 2.925714-33.645714 4.388571-51.2 4.388571z m-147.748572-111.177143c11.702857 54.125714 73.142857 90.697143 147.748572 90.697143 16.091429 0 30.72-1.462857 46.811428-4.388571 24.868571-4.388571 46.811429-13.165714 67.291429-24.868572-35.108571-59.977143-84.845714-90.697143-146.285715-90.697143-35.108571-1.462857-73.142857 8.777143-115.565714 29.257143z" fill="#141515"></path><path d="M532.48 507.611429L346.697143 909.897143c102.4-68.754286 153.6-102.4 216.502857-206.262857l171.154286-285.257143-201.874286 89.234286z" fill="#AFCEE9"></path><path d="M348.16 921.6c-2.925714 0-4.388571-1.462857-7.314286-2.925714-2.925714-2.925714-4.388571-7.314286-2.925714-11.702857l185.782857-402.285715c1.462857-2.925714 2.925714-4.388571 5.851429-5.851428L732.891429 409.6c4.388571-1.462857 8.777143-1.462857 11.702857 2.925714 2.925714 2.925714 2.925714 8.777143 1.462857 11.702857L573.44 709.485714C512 813.348571 457.874286 848.457143 362.788571 912.822857l-8.777142 5.851429c-2.925714 1.462857-4.388571 2.925714-5.851429 2.925714zM541.257143 516.388571l-168.228572 365.714286c81.92-55.588571 127.268571-90.697143 182.857143-182.857143l155.062857-257.462857L541.257143 516.388571z" fill="#141515"></path><path d="M637.805714 286.72l-206.262857 4.388571C321.828571 294.034286 277.942857 314.514286 179.931429 365.714286l245.76 29.257143 212.114285-108.251429z" fill="#AFCEE9"></path><path d="M425.691429 405.211429s-1.462857 0 0 0l-247.222858-29.257143c-4.388571 0-8.777143-4.388571-8.777142-8.777143-1.462857-4.388571 1.462857-8.777143 5.851428-11.702857 96.548571-49.737143 141.897143-73.142857 256-76.068572l206.262857-4.388571c4.388571 0 8.777143 2.925714 10.24 7.314286 1.462857 4.388571-1.462857 10.24-5.851428 11.702857l-212.114286 108.251428c-1.462857 2.925714-2.925714 2.925714-4.388571 2.925715z m-212.114286-45.348572l209.188571 24.868572 168.228572-86.308572-160.914286 4.388572c-96.548571 1.462857-141.897143 19.017143-216.502857 57.051428z" fill="#141515"></path><path d="M32.182857 532.48l38.034286-19.017143c26.331429-13.165714 68.754286-8.777143 95.085714 10.24l119.954286 84.845714-106.788572 43.885715-146.285714-103.862857c-7.314286-5.851429-7.314286-13.165714 0-16.091429z" fill="#AFCEE9"></path><path d="M179.931429 662.674286c-1.462857 0-4.388571 0-5.851429-1.462857L27.794286 555.885714c-7.314286-4.388571-10.24-11.702857-10.24-19.017143 0-5.851429 4.388571-11.702857 10.24-16.091428l38.034285-19.017143c27.794286-14.628571 77.531429-10.24 106.788572 10.24l119.954286 84.845714c2.925714 1.462857 4.388571 5.851429 4.388571 10.24 0 4.388571-2.925714 7.314286-5.851429 8.777143l-106.788571 43.885714c-2.925714 2.925714-4.388571 2.925714-4.388571 2.925715z m-140.434286-122.88l141.897143 99.474285 83.382857-35.108571-103.862857-76.068571c-14.628571-10.24-33.645714-16.091429-54.125715-16.091429-11.702857 0-23.405714 2.925714-30.72 7.314286l-36.571428 20.48z" fill="#141515"></path><path d="M184.32 653.897143L117.028571 808.96l80.457143-27.794286 84.845715-172.617143z" fill="#EEECF6"></path><path d="M117.028571 820.662857c-2.925714 0-5.851429-1.462857-7.314285-2.925714-2.925714-2.925714-2.925714-7.314286-1.462857-11.702857l65.828571-155.062857c1.462857-2.925714 2.925714-4.388571 5.851429-5.851429l99.474285-45.348571c4.388571-1.462857 8.777143-1.462857 11.702857 1.462857s4.388571 7.314286 1.462858 11.702857l-84.845715 174.08c-1.462857 2.925714-2.925714 2.925714-5.851428 4.388571L121.417143 819.2c-1.462857 0-2.925714 1.462857-4.388572 1.462857z m74.605715-159.451428l-55.588572 130.194285 54.125715-19.017143 70.217142-143.36-68.754285 32.182858z" fill="#141515"></path><path d="M291.108571 566.125714c-4.388571 0-7.314286-1.462857-8.777142-5.851428-2.925714-5.851429 0-11.702857 4.388571-13.165715l393.508571-190.171428c5.851429-2.925714 11.702857 0 13.165715 4.388571 2.925714 5.851429 0 11.702857-4.388572 13.165715l-393.508571 190.171428c-1.462857 1.462857-2.925714 1.462857-4.388572 1.462857z" fill="#141515"></path><path d="M882.102857 377.417143c-2.925714 0-7.314286-1.462857-8.777143-4.388572l-89.234285-140.434285c-2.925714-4.388571-1.462857-11.702857 2.925714-14.628572s11.702857-1.462857 14.628571 2.925715l89.234286 140.434285c2.925714 4.388571 1.462857 11.702857-2.925714 14.628572-1.462857 1.462857-4.388571 1.462857-5.851429 1.462857z" fill="#141515"></path></g></svg>